<svg xmlns="http://www.w3.org/2000/svg" viewBox="0 0 72 72"><defs><style>.cls-1{fill:#383838;}</style></defs><g id="Layer_2" data-name="Layer 2"><g id="Layer_2-2" data-name="Layer 2"><path class="cls-1" d="M59.22,9.55a3.16,3.16,0,0,1,1.24.25,3.23,3.23,0,0,1,2,3V59.22a3.23,3.23,0,0,1-2,3,3.16,3.16,0,0,1-1.24.25,3.22,3.22,0,0,1-2.28-1L16,20.56V59.22a3.23,3.23,0,1,1-6.45,0V12.78a3.23,3.23,0,0,1,2-3,3.16,3.16,0,0,1,1.24-.25,3.24,3.24,0,0,1,2.28.95L56,51.44V20.56L44.09,32.47a3.23,3.23,0,0,1-2.28,1,3.23,3.23,0,0,1-2.28-5.51L56.94,10.5a3.24,3.24,0,0,1,2.28-.95m0-9.55h0a12.69,12.69,0,0,0-9,3.74L36,17.93,21.81,3.74A12.78,12.78,0,0,0,0,12.78V59.22a12.78,12.78,0,1,0,25.55,0V43.62L50.19,68.26a12.78,12.78,0,0,0,21.81-9V12.78A12.77,12.77,0,0,0,59.23,0Z"/></g></g></svg>